<svg xmlns="http://www.w3.org/2000/svg" xmlns:v="https://svgstorm.com"
viewBox = "0 0 640 65"
width="640"
height="65">
<g fill="None" fill-opacity="0.0" stroke="#000002" stroke-opacity="0.00" stroke-width="0.3"><path d="
M 0.00 20.00 
C 34.58 10.63 72.46 3.09 109.00 0.00
L 0.00 0.00
L 0.00 20.00 Z"/>
</g>
<g fill="None" fill-opacity="0.0" stroke="#74F861" stroke-opacity="0.99" stroke-width="0.3"><path d="
M 0.00 20.00 
L 0.00 65.00
L 640.00 65.00
L 640.00 22.00
C 590.88 34.58 536.80 45.17 484.93 43.07 C 433.05 40.97 382.61 37.82 334.31 24.69 C 286.01 11.57 238.09 2.57 188.00 0.00
L 109.00 0.00
C 72.46 3.09 34.58 10.63 0.00 20.00 Z"/>
</g>
<g fill="None" fill-opacity="0.0" stroke="#000002" stroke-opacity="0.00" stroke-width="0.3"><path d="
M 640.00 22.00 
L 640.00 0.00
L 188.00 0.00
C 238.09 2.57 286.01 11.57 334.31 24.69 C 382.61 37.82 433.05 40.97 484.93 43.07 C 536.80 45.17 590.88 34.58 640.00 22.00 Z"/>
</g>
<g fill="#000002" fill-opacity="0.00" stroke="None">
<path d="
M 0.00 20.00 
C 34.58 10.63 72.46 3.09 109.00 0.00
L 0.00 0.00
L 0.00 20.00 Z"/>
</g>
<g fill="#74F861" fill-opacity="0.99" stroke="None">
<path d="
M 0.00 20.00 
L 0.00 65.00
L 640.00 65.00
L 640.00 22.00
C 590.88 34.58 536.80 45.17 484.93 43.07 C 433.05 40.97 382.61 37.82 334.31 24.69 C 286.01 11.57 238.09 2.57 188.00 0.00
L 109.00 0.00
C 72.46 3.09 34.58 10.63 0.00 20.00 Z"/>
</g>
<g fill="#000002" fill-opacity="0.00" stroke="None">
<path d="
M 640.00 22.00 
L 640.00 0.00
L 188.00 0.00
C 238.09 2.57 286.01 11.57 334.31 24.69 C 382.61 37.82 433.05 40.97 484.93 43.07 C 536.80 45.17 590.88 34.58 640.00 22.00 Z"/>
</g>
</svg>